<svg class="svg-icon" style="width: 1em; height: 1em;vertical-align: middle;fill: currentColor;overflow: hidden;" viewBox="0 0 1024 1024" version="1.1" xmlns="http://www.w3.org/2000/svg"><path d="M1000.727273 584.145455h-93.090909V344.436364c20.945455 27.927273 48.872727 53.527273 81.454545 72.145454 4.654545 2.327273 6.981818 2.327273 11.636364 2.327273 6.981818 0 16.290909-4.654545 20.945454-11.636364 6.981818-11.636364 2.327273-25.6-9.309091-32.581818C947.2 335.127273 907.636364 274.618182 907.636364 209.454545c0-13.963636-9.309091-23.272727-23.272728-23.272727h-93.090909c-13.963636 0-23.272727 9.309091-23.272727 23.272727 0 116.363636-114.036364 209.454545-256 209.454546s-256-93.090909-256-209.454546c0-13.963636-9.309091-23.272727-23.272727-23.272727H139.636364c-13.963636 0-23.272727 9.309091-23.272728 23.272727v2.327273c0 65.163636-37.236364 125.672727-104.727272 165.236364-11.636364 4.654545-13.963636 18.618182-9.309091 30.254545 4.654545 6.981818 13.963636 11.636364 20.945454 11.636364 4.654545 0 6.981818 0 11.636364-2.327273C67.490909 395.636364 95.418182 372.363636 116.363636 344.436364V581.818182H23.272727c-11.636364 0-23.272727 9.309091-23.272727 23.272727s9.309091 23.272727 23.272727 23.272727l93.090909 2.327273V791.272727H93.090909c-13.963636 0-23.272727 9.309091-23.272727 23.272728s9.309091 23.272727 23.272727 23.272727h186.181818c13.963636 0 23.272727-9.309091 23.272728-23.272727s-9.309091-23.272727-23.272728-23.272728h-23.272727v-93.090909c0-13.963636-9.309091-23.272727-23.272727-23.272727s-23.272727 9.309091-23.272728 23.272727v93.090909H162.909091V232.727273h48.872727c13.963636 130.327273 144.290909 232.727273 300.218182 232.727272s286.254545-102.4 300.218182-232.727272H861.090909v558.545454h-46.545454v-93.090909c0-13.963636-9.309091-23.272727-23.272728-23.272727s-23.272727 9.309091-23.272727 23.272727v93.090909h-23.272727c-13.963636 0-23.272727 9.309091-23.272728 23.272728s9.309091 23.272727 23.272728 23.272727h186.181818c13.963636 0 23.272727-9.309091 23.272727-23.272727s-9.309091-23.272727-23.272727-23.272728h-23.272727v-160.581818h93.090909c13.963636 0 23.272727-9.309091 23.272727-23.272727s-9.309091-23.272727-23.272727-23.272727z"  /><path d="M814.545455 607.418182V395.636364c0-13.963636-9.309091-23.272727-23.272728-23.272728s-23.272727 9.309091-23.272727 23.272728v188.509091h-93.090909V488.727273c0-13.963636-9.309091-23.272727-23.272727-23.272728s-23.272727 9.309091-23.272728 23.272728v95.418182h-93.090909V512c0-13.963636-9.309091-23.272727-23.272727-23.272727s-23.272727 9.309091-23.272727 23.272727v72.145455h-93.090909V488.727273c0-13.963636-9.309091-23.272727-23.272728-23.272728s-23.272727 9.309091-23.272727 23.272728v95.418182h-93.090909V395.636364c0-13.963636-9.309091-23.272727-23.272727-23.272728s-23.272727 9.309091-23.272728 23.272728v211.781818c0 13.963636 9.309091 23.272727 23.272728 23.272727h558.545454c13.963636 0 23.272727-11.636364 23.272728-23.272727z"  /></svg>